<?xml version="1.0" encoding="UTF-8"?>
<!DOCTYPE svg PUBLIC "-//W3C//DTD SVG 1.1//EN" "http://www.w3.org/Graphics/SVG/1.1/DTD/svg11.dtd">
<svg xmlns="http://www.w3.org/2000/svg" version="1.1" width="150px" height="150px" style="shape-rendering:geometricPrecision; text-rendering:geometricPrecision; image-rendering:optimizeQuality; fill-rule:evenodd; clip-rule:evenodd" xmlns:xlink="http://www.w3.org/1999/xlink">
<g><path style="opacity:0.971" fill="#7cc887" d="M 59.5,17.5 C 59.6068,19.3786 59.1068,19.7119 58,18.5C 56.1937,20.728 54.1937,22.728 52,24.5C 51.2496,23.8742 50.4162,23.3742 49.5,23C 50.4506,22.2825 50.6172,21.4491 50,20.5C 49.2917,21.3805 48.4584,22.0472 47.5,22.5C 46.8563,16.8845 47.0229,11.2178 48,5.5C 48.7065,3.91941 49.5399,2.41941 50.5,1C 51.635,0.250612 52.635,0.417278 53.5,1.5C 55.504,6.86332 57.504,12.1967 59.5,17.5 Z"/></g>
<g><path style="opacity:0.876" fill="#80c884" d="M 59.5,17.5 C 61.448,19.7887 63.448,22.122 65.5,24.5C 66.9397,25.9524 68.6064,26.9524 70.5,27.5C 69.0213,30.0456 67.5213,30.0456 66,27.5C 63.4944,29.8635 60.6611,31.5302 57.5,32.5C 57.719,33.675 57.3857,34.675 56.5,35.5C 51.6234,38.7111 47.79,42.3778 45,46.5C 44.6667,46.1667 44.3333,45.8333 44,45.5C 42.413,48.7559 39.913,50.9226 36.5,52C 38.9316,53.0875 38.5983,53.5875 35.5,53.5C 32.9171,48.5162 31.2505,43.1829 30.5,37.5C 31.7498,37.4226 32.5831,36.756 33,35.5C 33.4709,37.2464 34.1376,38.913 35,40.5C 35.9688,37.6983 37.8021,35.6983 40.5,34.5C 40.9005,32.5658 41.9005,31.0658 43.5,30C 41.5743,29.5776 40.5743,28.4109 40.5,26.5C 43.2114,28.744 46.2114,30.244 49.5,31C 48.0085,28.3788 47.3418,25.5455 47.5,22.5C 48.4584,22.0472 49.2917,21.3805 50,20.5C 50.6172,21.4491 50.4506,22.2825 49.5,23C 50.4162,23.3742 51.2496,23.8742 52,24.5C 54.1937,22.728 56.1937,20.728 58,18.5C 59.1068,19.7119 59.6068,19.3786 59.5,17.5 Z"/></g>
<g><path style="opacity:0.965" fill="#7bc887" d="M 40.5,26.5 C 40.5743,28.4109 41.5743,29.5776 43.5,30C 41.9005,31.0658 40.9005,32.5658 40.5,34.5C 37.8021,35.6983 35.9688,37.6983 35,40.5C 34.1376,38.913 33.4709,37.2464 33,35.5C 32.5831,36.756 31.7498,37.4226 30.5,37.5C 30.347,31.1308 30.6803,24.7974 31.5,18.5C 32.552,18.3505 33.552,18.5172 34.5,19C 36.364,21.6877 38.364,24.1877 40.5,26.5 Z"/></g>
<g><path style="opacity:0.992" fill="#86c780" d="M 70.5,27.5 C 72.7433,29.1178 75.0766,30.4512 77.5,31.5C 75.2453,32.2147 73.4119,33.548 72,35.5C 71.6667,35.1667 71.3333,34.8333 71,34.5C 69.8333,36.3333 68.3333,37.8333 66.5,39C 67.8333,39.6667 67.8333,40.3333 66.5,41C 62.3517,42.1989 59.3517,44.6989 57.5,48.5C 50.0918,55.0524 42.4252,61.3858 34.5,67.5C 33.2393,69.4534 32.0726,71.4534 31,73.5C 30.6582,71.3808 29.8249,71.0474 28.5,72.5C 26.7345,66.0911 26.0678,59.4244 26.5,52.5C 29.7731,54.0613 33.1064,55.7279 36.5,57.5C 36.8333,57.3333 37.1667,57.1667 37.5,57C 36.695,55.8873 36.0283,54.7206 35.5,53.5C 38.5983,53.5875 38.9316,53.0875 36.5,52C 39.913,50.9226 42.413,48.7559 44,45.5C 44.3333,45.8333 44.6667,46.1667 45,46.5C 47.79,42.3778 51.6234,38.7111 56.5,35.5C 57.3857,34.675 57.719,33.675 57.5,32.5C 60.6611,31.5302 63.4944,29.8635 66,27.5C 67.5213,30.0456 69.0213,30.0456 70.5,27.5 Z"/></g>
<g><path style="opacity:0.994" fill="#92c678" d="M 84.5,33.5 C 88.2507,34.4117 91.584,36.0784 94.5,38.5C 94.6567,39.8734 94.49,41.2068 94,42.5C 93.6667,42.1667 93.3333,41.8333 93,41.5C 90.0358,44.7255 86.5358,47.0589 82.5,48.5C 82.762,49.9778 82.4287,51.3112 81.5,52.5C 79.1065,53.0948 77.2732,54.4281 76,56.5C 75.6667,56.1667 75.3333,55.8333 75,55.5C 73.6924,57.6414 72.1924,59.6414 70.5,61.5C 66.7128,64.487 63.2128,67.8203 60,71.5C 56.363,72.9739 53.1964,75.6406 50.5,79.5C 46.8175,81.2152 43.4842,83.3819 40.5,86C 38.701,87.0363 37.0343,87.2029 35.5,86.5C 33.7497,85.3406 32.7497,83.674 32.5,81.5C 33.5981,80.603 33.5981,79.7697 32.5,79C 35.919,76.6564 39.2523,74.9898 42.5,74C 41.4652,72.4931 41.6319,70.9931 43,69.5C 49.828,65.0567 56.328,59.5567 62.5,53C 66.8518,52.5811 67.1851,51.9145 63.5,51C 67.795,48.6923 71.795,46.0256 75.5,43C 76.376,41.414 77.376,39.914 78.5,38.5C 79.086,38.7093 79.586,39.0426 80,39.5C 80.5,37.6667 81.6667,36.5 83.5,36C 81.1428,34.78 81.4761,33.9467 84.5,33.5 Z"/></g>
<g><path style="opacity:1" fill="#8cc77d" d="M 77.5,31.5 C 80.2282,31.1706 82.5615,31.8372 84.5,33.5C 81.4761,33.9467 81.1428,34.78 83.5,36C 81.6667,36.5 80.5,37.6667 80,39.5C 79.586,39.0426 79.086,38.7093 78.5,38.5C 77.376,39.914 76.376,41.414 75.5,43C 71.795,46.0256 67.795,48.6923 63.5,51C 67.1851,51.9145 66.8518,52.5811 62.5,53C 56.328,59.5567 49.828,65.0567 43,69.5C 41.6319,70.9931 41.4652,72.4931 42.5,74C 39.2523,74.9898 35.919,76.6564 32.5,79C 33.5981,79.7697 33.5981,80.603 32.5,81.5C 30.9073,78.6451 29.5739,75.6451 28.5,72.5C 29.8249,71.0474 30.6582,71.3808 31,73.5C 32.0726,71.4534 33.2393,69.4534 34.5,67.5C 42.4252,61.3858 50.0918,55.0524 57.5,48.5C 59.3517,44.6989 62.3517,42.1989 66.5,41C 67.8333,40.3333 67.8333,39.6667 66.5,39C 68.3333,37.8333 69.8333,36.3333 71,34.5C 71.3333,34.8333 71.6667,35.1667 72,35.5C 73.4119,33.548 75.2453,32.2147 77.5,31.5 Z"/></g>
<g><path style="opacity:0.991" fill="#99c674" d="M 94.5,38.5 C 96.2525,41.1461 97.2525,44.1461 97.5,47.5C 98.5,47.5 99.5,47.5 100.5,47.5C 99.1155,48.8009 97.6155,48.8009 96,47.5C 94.0858,48.676 94.2524,49.676 96.5,50.5C 93.9826,51.8644 92.1493,53.8644 91,56.5C 90.6667,56.1667 90.3333,55.8333 90,55.5C 86.2961,58.3693 83.1295,61.7027 80.5,65.5C 79.2638,66.2458 77.9305,66.5792 76.5,66.5C 76.6495,67.552 76.4828,68.552 76,69.5C 75.6667,69.1667 75.3333,68.8333 75,68.5C 73.9563,69.6226 73.2896,70.9559 73,72.5C 72.2588,71.3595 71.4255,71.3595 70.5,72.5C 65.452,78.1665 59.452,83.4998 52.5,88.5C 52,89.5 51.5,90.5 51,91.5C 50.6667,91.1667 50.3333,90.8333 50,90.5C 48.1988,93.8967 45.6988,95.5633 42.5,95.5C 39.027,93.3633 36.6936,90.3633 35.5,86.5C 37.0343,87.2029 38.701,87.0363 40.5,86C 43.4842,83.3819 46.8175,81.2152 50.5,79.5C 53.1964,75.6406 56.363,72.9739 60,71.5C 63.2128,67.8203 66.7128,64.487 70.5,61.5C 72.1924,59.6414 73.6924,57.6414 75,55.5C 75.3333,55.8333 75.6667,56.1667 76,56.5C 77.2732,54.4281 79.1065,53.0948 81.5,52.5C 82.4287,51.3112 82.762,49.9778 82.5,48.5C 86.5358,47.0589 90.0358,44.7255 93,41.5C 93.3333,41.8333 93.6667,42.1667 94,42.5C 94.49,41.2068 94.6567,39.8734 94.5,38.5 Z"/></g>
<g><path style="opacity:0.972" fill="#a5c56c" d="M 103.5,47.5 C 106.462,47.9547 109.129,49.1214 111.5,51C 112.781,52.4087 113.781,53.9087 114.5,55.5C 112.815,57.8176 110.481,58.8176 107.5,58.5C 107.577,61.5092 106.244,63.6759 103.5,65C 104.654,65.9138 104.487,66.7471 103,67.5C 102.282,66.5494 101.449,66.3828 100.5,67C 101.833,67.6667 101.833,68.3333 100.5,69C 97.0572,69.5098 94.0572,71.3432 91.5,74.5C 91.9569,75.2975 92.6236,75.6309 93.5,75.5C 93.5,75.8333 93.5,76.1667 93.5,76.5C 92.6236,76.3691 91.9569,76.7025 91.5,77.5C 92.3256,78.451 92.4922,79.451 92,80.5C 88.2211,79.3774 84.8878,80.7107 82,84.5C 80.9055,82.9221 80.0722,81.2554 79.5,79.5C 79.3433,78.1266 79.51,76.7932 80,75.5C 89.6423,67.3815 98.809,59.0482 107.5,50.5C 105.816,49.8503 104.483,48.8503 103.5,47.5 Z"/></g>
<g><path style="opacity:0.874" fill="#abc569" d="M 114.5,55.5 C 115.966,56.347 116.8,57.6803 117,59.5C 117.499,63.1516 117.665,66.8183 117.5,70.5C 116.141,69.9935 115.141,68.9935 114.5,67.5C 112.097,70.3334 109.43,72.0001 106.5,72.5C 101.486,70.8436 97.1524,71.8436 93.5,75.5C 92.6236,75.6309 91.9569,75.2975 91.5,74.5C 94.0572,71.3432 97.0572,69.5098 100.5,69C 101.833,68.3333 101.833,67.6667 100.5,67C 101.449,66.3828 102.282,66.5494 103,67.5C 104.487,66.7471 104.654,65.9138 103.5,65C 106.244,63.6759 107.577,61.5092 107.5,58.5C 110.481,58.8176 112.815,57.8176 114.5,55.5 Z"/></g>
<g><path style="opacity:0.811" fill="#b1c465" d="M 117.5,70.5 C 117.037,73.4824 116.704,76.4824 116.5,79.5C 114.708,79.634 113.042,79.3007 111.5,78.5C 110.896,75.5666 109.229,73.5666 106.5,72.5C 109.43,72.0001 112.097,70.3334 114.5,67.5C 115.141,68.9935 116.141,69.9935 117.5,70.5 Z"/></g>
<g><path style="opacity:0.816" fill="#b0c465" d="M 111.5,78.5 C 111.733,80.0618 112.4,81.3951 113.5,82.5C 113.565,82.9382 113.399,83.2716 113,83.5C 112.163,81.9926 110.996,81.4926 109.5,82C 109.833,82.3333 110.167,82.6667 110.5,83C 109.24,84.113 108.073,84.2797 107,83.5C 107.109,84.7688 106.942,85.7688 106.5,86.5C 103.998,84.8304 101.998,82.6637 100.5,80C 99.2068,79.51 97.8734,79.3433 96.5,79.5C 96.33,78.1779 96.6634,77.0113 97.5,76C 102.631,74.8058 107.298,75.6391 111.5,78.5 Z"/></g>
<g><path style="opacity:0.995" fill="#9fc670" d="M 100.5,47.5 C 101.5,47.5 102.5,47.5 103.5,47.5C 104.483,48.8503 105.816,49.8503 107.5,50.5C 98.809,59.0482 89.6423,67.3815 80,75.5C 79.51,76.7932 79.3433,78.1266 79.5,79.5C 78.8333,79.5 78.1667,79.5 77.5,79.5C 76.7895,77.5876 75.6229,75.921 74,74.5C 72.6693,75.9958 71.1693,77.3291 69.5,78.5C 68.1854,80.1986 68.1854,81.8653 69.5,83.5C 68.2264,84.1894 68.2264,85.0228 69.5,86C 66.0421,88.4551 62.8754,91.2885 60,94.5C 59.6667,94.1667 59.3333,93.8333 59,93.5C 57.1667,95.6667 55.3333,97.8333 53.5,100C 52.175,99.8516 51.0084,100.018 50,100.5C 48.871,98.8588 47.371,97.8588 45.5,97.5C 43.9731,97.573 42.9731,96.9063 42.5,95.5C 45.6988,95.5633 48.1988,93.8967 50,90.5C 50.3333,90.8333 50.6667,91.1667 51,91.5C 51.5,90.5 52,89.5 52.5,88.5C 59.452,83.4998 65.452,78.1665 70.5,72.5C 71.4255,71.3595 72.2588,71.3595 73,72.5C 73.2896,70.9559 73.9563,69.6226 75,68.5C 75.3333,68.8333 75.6667,69.1667 76,69.5C 76.4828,68.552 76.6495,67.552 76.5,66.5C 77.9305,66.5792 79.2638,66.2458 80.5,65.5C 83.1295,61.7027 86.2961,58.3693 90,55.5C 90.3333,55.8333 90.6667,56.1667 91,56.5C 92.1493,53.8644 93.9826,51.8644 96.5,50.5C 94.2524,49.676 94.0858,48.676 96,47.5C 97.6155,48.8009 99.1155,48.8009 100.5,47.5 Z"/></g>
<g><path style="opacity:0.9" fill="#acc568" d="M 93.5,76.5 C 94.3847,79.0606 95.7181,81.394 97.5,83.5C 96.8106,84.7736 95.9772,84.7736 95,83.5C 94.2261,85.9393 92.7261,87.7727 90.5,89C 90.8333,89.3333 91.1667,89.6667 91.5,90C 89.9813,89.6692 88.648,89.8359 87.5,90.5C 82.7522,88.087 79.4189,84.4204 77.5,79.5C 78.1667,79.5 78.8333,79.5 79.5,79.5C 80.0722,81.2554 80.9055,82.9221 82,84.5C 84.8878,80.7107 88.2211,79.3774 92,80.5C 92.4922,79.451 92.3256,78.451 91.5,77.5C 91.9569,76.7025 92.6236,76.3691 93.5,76.5 Z"/></g>
<g><path style="opacity:0.857" fill="#b8c461" d="M 106.5,86.5 C 106.942,85.7688 107.109,84.7688 107,83.5C 108.073,84.2797 109.24,84.113 110.5,83C 110.167,82.6667 109.833,82.3333 109.5,82C 110.996,81.4926 112.163,81.9926 113,83.5C 113.399,83.2716 113.565,82.9382 113.5,82.5C 118.155,82.8828 122.488,81.8828 126.5,79.5C 127.491,84.0227 126.158,87.856 122.5,91C 115.817,94.0068 110.483,92.5068 106.5,86.5 Z"/></g>
<g><path style="opacity:0.771" fill="#b1c464" d="M 97.5,83.5 C 99.3046,84.2371 100.971,85.2371 102.5,86.5C 103.747,88.0064 103.747,89.5064 102.5,91C 97.3158,91.8163 92.3158,91.6497 87.5,90.5C 88.648,89.8359 89.9813,89.6692 91.5,90C 91.1667,89.6667 90.8333,89.3333 90.5,89C 92.7261,87.7727 94.2261,85.9393 95,83.5C 95.9772,84.7736 96.8106,84.7736 97.5,83.5 Z"/></g>
<g><path style="opacity:0.936" fill="#a5c56c" d="M 69.5,83.5 C 71.1475,85.3264 73.1475,86.6597 75.5,87.5C 76.4749,89.1927 77.8082,90.6927 79.5,92C 78.5509,92.6172 77.7175,92.4506 77,91.5C 72.8874,94.4027 69.5541,97.4027 67,100.5C 64.7403,98.0028 63.407,98.6695 63,102.5C 62.6667,101.833 62.3333,101.167 62,100.5C 60.5905,101.787 59.0905,102.954 57.5,104C 58.056,104.383 58.3893,104.883 58.5,105.5C 53.3546,104.097 49.0213,101.43 45.5,97.5C 47.371,97.8588 48.871,98.8588 50,100.5C 51.0084,100.018 52.175,99.8516 53.5,100C 55.3333,97.8333 57.1667,95.6667 59,93.5C 59.3333,93.8333 59.6667,94.1667 60,94.5C 62.8754,91.2885 66.0421,88.4551 69.5,86C 68.2264,85.0228 68.2264,84.1894 69.5,83.5 Z"/></g>
<g><path style="opacity:0.961" fill="#abc569" d="M 75.5,87.5 C 77.9243,89.2428 80.591,90.5762 83.5,91.5C 83.5858,92.4959 83.2524,93.3292 82.5,94C 83.1667,94.3333 83.8333,94.6667 84.5,95C 80.1446,99.0173 75.478,102.684 70.5,106C 71.2524,106.671 71.5858,107.504 71.5,108.5C 67.1266,107.657 62.7933,106.657 58.5,105.5C 58.3893,104.883 58.056,104.383 57.5,104C 59.0905,102.954 60.5905,101.787 62,100.5C 62.3333,101.167 62.6667,101.833 63,102.5C 63.407,98.6695 64.7403,98.0028 67,100.5C 69.5541,97.4027 72.8874,94.4027 77,91.5C 77.7175,92.4506 78.5509,92.6172 79.5,92C 77.8082,90.6927 76.4749,89.1927 75.5,87.5 Z"/></g>
<g><path style="opacity:0.921" fill="#b1c465" d="M 83.5,91.5 C 87.7088,94.1038 92.0421,96.4371 96.5,98.5C 95.7784,98.9175 95.2784,99.5842 95,100.5C 93.1316,99.3281 91.2983,99.4947 89.5,101C 88.1218,102.713 86.4552,104.047 84.5,105C 84.8333,105.333 85.1667,105.667 85.5,106C 83.9751,107.009 82.3084,107.509 80.5,107.5C 80.5,108.5 80.5,109.5 80.5,110.5C 77.2613,110.587 74.2613,109.92 71.5,108.5C 71.5858,107.504 71.2524,106.671 70.5,106C 75.478,102.684 80.1446,99.0173 84.5,95C 83.8333,94.6667 83.1667,94.3333 82.5,94C 83.2524,93.3292 83.5858,92.4959 83.5,91.5 Z"/></g>
<g><path style="opacity:0.911" fill="#b8c461" d="M 96.5,98.5 C 103.869,102.043 110.202,106.876 115.5,113C 115.361,114.301 114.695,115.134 113.5,115.5C 113.617,113.516 112.95,111.85 111.5,110.5C 109.003,108.515 106.169,107.182 103,106.5C 101.133,107.377 99.966,108.877 99.5,111C 98.552,111.483 97.552,111.649 96.5,111.5C 96.6138,113.718 97.2804,115.718 98.5,117.5C 98.1667,117.5 97.8333,117.5 97.5,117.5C 92.2482,114.193 86.5815,111.86 80.5,110.5C 80.5,109.5 80.5,108.5 80.5,107.5C 82.3084,107.509 83.9751,107.009 85.5,106C 85.1667,105.667 84.8333,105.333 84.5,105C 86.4552,104.047 88.1218,102.713 89.5,101C 91.2983,99.4947 93.1316,99.3281 95,100.5C 95.2784,99.5842 95.7784,98.9175 96.5,98.5 Z"/></g>
<g><path style="opacity:0.901" fill="#a0c670" d="M 46.5,102.5 C 46.3893,103.117 46.056,103.617 45.5,104C 47.0441,104.29 48.3774,104.956 49.5,106C 48.5509,106.617 47.7175,106.451 47,105.5C 46.0922,107.439 44.5922,108.439 42.5,108.5C 40.5989,105.078 38.4322,101.745 36,98.5C 35.3333,97.1667 35.3333,95.8333 36,94.5C 40.5108,95.8446 44.0108,98.5113 46.5,102.5 Z"/></g>
<g><path style="opacity:0.932" fill="#aac569" d="M 46.5,102.5 C 50.7021,104.895 55.0354,106.895 59.5,108.5C 61.1088,109.898 61.9421,111.565 62,113.5C 60.2854,115.759 58.4521,117.926 56.5,120C 54.634,118.992 53.3007,119.492 52.5,121.5C 48.4631,117.785 45.1297,113.452 42.5,108.5C 44.5922,108.439 46.0922,107.439 47,105.5C 47.7175,106.451 48.5509,106.617 49.5,106C 48.3774,104.956 47.0441,104.29 45.5,104C 46.056,103.617 46.3893,103.117 46.5,102.5 Z"/></g>
<g><path style="opacity:0.885" fill="#b1c565" d="M 59.5,108.5 C 66.4572,109.938 73.4572,111.271 80.5,112.5C 80.5858,113.496 80.2524,114.329 79.5,115C 78.84,114.102 77.5067,113.768 75.5,114C 73.1911,116.487 70.5244,118.487 67.5,120C 67.8333,120.333 68.1667,120.667 68.5,121C 66.6079,121.973 64.6079,122.64 62.5,123C 64.5029,123.335 66.1696,124.168 67.5,125.5C 67.5,125.833 67.5,126.167 67.5,126.5C 63.8183,126.665 60.1516,126.499 56.5,126C 55.3012,124.306 53.9678,122.806 52.5,121.5C 53.3007,119.492 54.634,118.992 56.5,120C 58.4521,117.926 60.2854,115.759 62,113.5C 61.9421,111.565 61.1088,109.898 59.5,108.5 Z"/></g>
<g><path style="opacity:0.874" fill="#bfc45c" d="M 113.5,115.5 C 112.145,118.855 109.811,121.189 106.5,122.5C 103.869,120.847 101.203,119.181 98.5,117.5C 97.2804,115.718 96.6138,113.718 96.5,111.5C 97.552,111.649 98.552,111.483 99.5,111C 99.966,108.877 101.133,107.377 103,106.5C 106.169,107.182 109.003,108.515 111.5,110.5C 112.95,111.85 113.617,113.516 113.5,115.5 Z"/></g>
<g><path style="opacity:0.933" fill="#b7c461" d="M 80.5,112.5 C 84.0902,113.483 87.4235,114.817 90.5,116.5C 89.5416,116.953 88.7083,117.619 88,118.5C 87.2825,117.549 86.4491,117.383 85.5,118C 80.818,123.504 74.818,126.004 67.5,125.5C 66.1696,124.168 64.5029,123.335 62.5,123C 64.6079,122.64 66.6079,121.973 68.5,121C 68.1667,120.667 67.8333,120.333 67.5,120C 70.5244,118.487 73.1911,116.487 75.5,114C 77.5067,113.768 78.84,114.102 79.5,115C 80.2524,114.329 80.5858,113.496 80.5,112.5 Z"/></g>
<g><path style="opacity:0.903" fill="#bec45d" d="M 90.5,116.5 C 92.8056,116.993 95.139,117.326 97.5,117.5C 99.7275,120.45 102.728,122.116 106.5,122.5C 106.265,125.803 104.598,128.137 101.5,129.5C 100.735,129.923 99.9021,130.257 99,130.5C 97.4329,129.144 95.5996,128.477 93.5,128.5C 92.1667,128.5 90.8333,128.5 89.5,128.5C 87.3926,127.532 85.0593,127.198 82.5,127.5C 81.8333,127.5 81.1667,127.5 80.5,127.5C 76.3656,126.515 72.0323,126.182 67.5,126.5C 67.5,126.167 67.5,125.833 67.5,125.5C 74.818,126.004 80.818,123.504 85.5,118C 86.4491,117.383 87.2825,117.549 88,118.5C 88.7083,117.619 89.5416,116.953 90.5,116.5 Z"/></g>
<g><path style="opacity:0.727" fill="#b9c460" d="M 80.5,127.5 C 81.1667,127.5 81.8333,127.5 82.5,127.5C 82.8417,128.338 83.5084,128.672 84.5,128.5C 80.8436,130.907 77.0102,132.24 73,132.5C 72.5348,133.931 71.7014,135.097 70.5,136C 73.1242,136.576 73.7908,137.91 72.5,140C 73.3805,140.708 74.0472,141.542 74.5,142.5C 70.2714,139.619 66.2714,136.286 62.5,132.5C 61.5481,130.955 61.2148,129.288 61.5,127.5C 67.8333,127.5 74.1667,127.5 80.5,127.5 Z"/></g>
<g><path style="opacity:0.916" fill="#c0c45b" d="M 84.5,128.5 C 86.1667,128.5 87.8333,128.5 89.5,128.5C 90.6354,130.213 92.302,130.88 94.5,130.5C 94.5,131.167 94.8333,131.5 95.5,131.5C 95.8039,132.15 96.1373,132.817 96.5,133.5C 95.4756,134.852 94.4756,136.185 93.5,137.5C 90.5743,140.317 87.5743,143.151 84.5,146C 80.2719,147.013 76.9385,145.846 74.5,142.5C 74.0472,141.542 73.3805,140.708 72.5,140C 73.7908,137.91 73.1242,136.576 70.5,136C 71.7014,135.097 72.5348,133.931 73,132.5C 77.0102,132.24 80.8436,130.907 84.5,128.5 Z"/></g>
<g><path style="opacity:0.063" fill="#b1c465" d="M 93.5,128.5 C 95.5996,128.477 97.4329,129.144 99,130.5C 99.9021,130.257 100.735,129.923 101.5,129.5C 100.817,131.176 99.4832,131.843 97.5,131.5C 98.1089,134.878 96.7756,136.878 93.5,137.5C 94.4756,136.185 95.4756,134.852 96.5,133.5C 96.1373,132.817 95.8039,132.15 95.5,131.5C 96.5573,130.794 96.2239,130.461 94.5,130.5C 94.1667,129.833 93.8333,129.167 93.5,128.5 Z"/></g>
</svg>
